<svg xmlns="http://www.w3.org/2000/svg" width="1800" height="900" viewBox="0 0 1800 900">
  <defs>
    <linearGradient id="sky" x1="0" y1="0" x2="1" y2="1">
      <stop stop-color="#111c2a"/>
      <stop offset=".45" stop-color="#caa37e"/>
      <stop offset="1" stop-color="#f7e1b5"/>
    </linearGradient>
    <linearGradient id="water" x1="0" y1="0" x2="1" y2="1">
      <stop stop-color="#0c4457"/>
      <stop offset=".65" stop-color="#6fb4b5"/>
      <stop offset="1" stop-color="#f2d3a2"/>
    </linearGradient>
  </defs>
  <rect width="1800" height="900" fill="url(#sky)"/>
  <rect y="565" width="1800" height="335" fill="url(#water)"/>
  <circle cx="1420" cy="150" r="180" fill="#fff1b8" opacity=".42"/>
  <path d="M0 640 C220 590 430 650 680 612 C980 566 1240 615 1500 578 C1650 558 1740 570 1800 550 L1800 900 L0 900 Z" fill="#9ed3cf" opacity=".34"/>
  <g fill="#11161d" opacity=".72">
    <rect x="220" y="330" width="60" height="240"/>
    <rect x="315" y="245" width="70" height="325"/>
    <rect x="430" y="390" width="94" height="180"/>
    <rect x="575" y="285" width="52" height="285"/>
    <rect x="690" y="180" width="66" height="390"/>
    <rect x="840" y="352" width="118" height="218"/>
    <rect x="990" y="270" width="58" height="300"/>
    <rect x="1090" y="220" width="44" height="350"/>
  </g>
  <path d="M1160 455 C1270 355 1430 360 1550 470 L1565 565 L1120 570 Z" fill="#f4efe7" opacity=".82"/>
  <path d="M1188 514 C1290 476 1428 480 1538 522" stroke="#c86b47" stroke-width="12" fill="none" opacity=".34"/>
</svg>
